P3
38 36
255
0 171 171 0 171 171 0 170 170 0 163 163 0 163 163 0 163 163 0 169 169 0 170 170 0 171 171 0 169 169 0 166 166 0 164 164 0 164 164 0 164 164 0 163 163 0 166 166 0 165 165 0 163 163 0 167 167 0 168 168 0 170 170 0 171 171 0 170 170 0 168 168 0 168 168 0 170 170 0 168 168 0 170 170 0 168 168 0 170 170 0 168 168 0 168 168 0 170 170 0 170 170 0 170 170 0 168 168 0 169 169 0 170 170
0 171 171 0 170 170 0 170 170 0 166 166 0 165 165 0 165 165 0 169 169 0 169 169 0 171 171 0 170 170 0 167 167 0 166 166 0 165 165 0 166 166 0 167 167 0 168 168 0 166 166 0 164 164 0 168 168 0 169 169 0 171 171 0 171 171 0 165 165 0 168 168 0 170 170 0 162 162 0 167 167 0 170 170 0 170 170 0 170 170 0 170 170 0 170 170 0 168 168 0 170 170 0 170 170 0 165 165 0 170 170 0 165 165
0 169 169 0 169 169 0 169 169 0 171 171 0 173 173 0 173 173 0 171 171 0 169 169 0 170 170 0 170 170 0 171 171 0 171 171 0 171 171 0 171 171 0 171 171 0 171 171 0 171 171 0 171 171 0 170 170 0 170 170 0 170 170 0 170 170 0 169 169 0 169 169 0 163 163 0 91 91 0 86 86 0 85 85 0 85 85 0 85 85 0 85 85 0 89 89 0 85 85 0 85 85 0 85 85 0 86 86 0 164 164 0 170 170
0 166 166 0 167 167 0 167 167 0 172 172 0 184 184 0 182 182 0 177 177 0 174 174 0 173 173 0 174 174 0 178 178 0 179 179 0 179 179 0 178 178 0 181 181 0 179 179 0 180 180 0 178 178 0 174 174 0 169 169 0 167 167 0 167 167 0 169 169 0 170 170 0 170 170 0 85 85 0 85 85 0 85 85 0 85 85 0 85 85 0 85 85 0 87 87 0 86 86 0 88 88 0 86 86 0 85 85 0 170 170 0 170 170
0 163 163 0 168 168 0 168 168 0 175 175 0 189 189 0 192 192 0 188 188 0 184 184 0 181 181 0 182 182 0 189 189 0 190 190 0 189 189 0 189 189 0 188 188 0 189 189 0 191 191 0 187 187 0 176 176 0 171 171 0 166 166 0 165 165 0 165 165 0 170 170 0 170 170 0 85 85 0 86 86 0 90 90 0 85 85 0 86 86 0 90 90 0 85 85 0 85 85 0 85 85 0 85 85 0 87 87 0 170 170 0 169 169
0 164 164 0 167 167 0 165 165 0 180 180 0 181 181 0 192 192 0 190 190 0 186 186 0 178 178 0 180 180 0 192 192 0 196 196 0 193 193 0 191 191 0 192 192 0 189 189 0 188 188 0 182 182 0 182 182 0 171 171 0 168 168 0 167 167 0 168 168 0 170 170 0 167 167 0 85 85 0 85 85 0 85 85 0 85 85 0 86 86 0 85 85 0 85 85 0 90 90 0 89 89 0 85 85 0 85 85 0 170 170 0 170 170
0 161 161 0 166 166 0 167 167 0 179 179 0 194 194 0 210 210 0 216 216 0 214 214 0 204 204 0 205 205 0 219 219 0 223 223 0 218 218 0 215 215 0 215 215 0 211 211 0 207 207 0 190 190 0 182 182 0 169 169 0 168 168 0 163 163 0 167 167 0 169 169 0 169 169 0 88 88 0 87 87 0 85 85 0 86 86 0 85 85 0 86 86 0 85 85 0 85 85 0 85 85 0 85 85 0 86 86 0 170 170 0 169 169
0 157 157 0 166 166 0 167 167 0 180 180 0 196 196 0 213 213 0 223 223 0 225 225 0 215 215 0 216 216 0 229 229 0 230 230 0 229 229 0 226 226 0 224 224 0 224 224 0 221 221 0 198 198 0 182 182 0 169 169 0 168 168 0 168 168 0 169 169 0 170 170 0 170 170 0 85 85 0 86 86 0 85 85 0 87 87 0 85 85 0 85 85 0 88 88 0 85 85 0 89 89 0 85 85 0 85 85 0 170 170 0 169 169
0 157 157 0 166 166 0 167 167 0 180 180 0 196 196 0 213 213 0 223 223 0 225 225 0 215 215 0 216 216 0 229 229 0 230 230 0 229 229 0 226 226 0 224 224 0 224 224 0 221 221 0 198 198 0 182 182 0 169 169 0 168 168 0 168 168 0 168 168 0 170 170 0 170 170 0 85 85 0 88 88 0 85 85 0 85 85 0 85 85 0 85 85 0 85 85 0 85 85 0 85 85 0 86 86 0 85 85 0 170 170 0 170 170
0 161 161 0 166 166 0 167 167 0 179 179 0 194 194 0 210 210 0 216 216 0 214 214 0 204 204 0 205 205 0 219 219 0 223 223 0 218 218 0 215 215 0 215 215 0 211 211 0 207 207 0 190 190 0 182 182 0 169 169 0 168 168 0 163 163 0 169 169 0 170 170 0 166 166 0 88 88 0 87 87 0 87 87 0 85 85 0 86 86 0 87 87 0 87 87 0 85 85 0 85 85 0 86 86 0 85 85 0 170 170 0 169 169
0 164 164 0 167 167 0 165 165 0 180 180 0 181 181 0 192 192 0 190 190 0 186 186 0 178 178 0 180 180 0 192 192 0 196 196 0 193 193 0 191 191 0 192 192 0 189 189 0 188 188 0 182 182 0 182 182 0 171 171 0 168 168 0 167 167 0 168 168 0 170 170 0 168 168 0 85 85 0 85 85 0 85 85 0 85 85 0 85 85 0 85 85 0 85 85 0 85 85 0 85 85 0 85 85 0 85 85 0 170 170 0 168 168
0 163 163 0 168 168 0 168 168 0 175 175 0 189 189 0 192 192 0 188 188 0 184 184 0 181 181 0 182 182 0 189 189 0 190 190 0 189 189 0 189 189 0 188 188 0 189 189 0 191 191 0 187 187 0 176 176 0 171 171 0 166 166 0 165 165 0 165 165 0 169 169 0 170 170 0 85 85 0 85 85 0 85 85 0 88 88 0 85 85 0 85 85 0 85 85 0 88 88 0 86 86 0 86 86 0 85 85 0 170 170 0 170 170
0 166 166 0 167 167 0 167 167 0 172 172 0 184 184 0 182 182 0 177 177 0 174 174 0 173 173 0 174 174 0 178 178 0 179 179 0 179 179 0 178 178 0 181 181 0 179 179 0 180 180 0 178 178 0 174 174 0 169 169 0 167 167 0 167 167 0 169 169 0 170 170 0 165 165 0 90 90 0 85 85 0 85 85 0 85 85 0 85 85 0 89 89 0 85 85 0 85 85 0 85 85 0 85 85 0 88 88 0 163 163 0 168 168
0 169 169 0 169 169 0 169 169 0 171 171 0 173 173 0 173 173 0 171 171 0 169 169 0 170 170 0 170 170 0 171 171 0 171 171 0 171 171 0 171 171 0 171 171 0 171 171 0 171 171 0 171 171 0 170 170 0 170 170 0 170 170 0 170 170 0 163 163 0 167 167 0 170 170 0 167 167 0 170 170 0 170 170 0 166 166 0 170 170 0 167 167 0 167 167 0 170 170 0 170 170 0 170 170 0 161 161 0 170 170 0 168 168
0 171 171 0 170 170 0 170 170 0 166 166 0 165 165 0 165 165 0 169 169 0 169 169 0 171 171 0 170 170 0 167 167 0 166 166 0 165 165 0 166 166 0 167 167 0 168 168 0 166 166 0 164 164 0 168 168 0 169 169 0 171 171 0 171 171 0 170 170 0 170 170 0 163 163 0 170 170 0 167 167 0 170 170 0 167 167 0 170 170 0 170 170 0 168 168 0 168 168 0 168 168 0 170 170 0 169 169 0 170 170 0 167 167
0 171 171 0 170 170 0 170 170 0 165 165 0 166 166 0 165 165 0 169 169 0 169 169 0 171 171 0 170 170 0 168 168 0 167 167 0 165 165 0 166 166 0 164 164 0 166 166 0 166 166 0 162 162 0 167 167 0 167 167 0 168 168 0 170 170 0 166 166 0 171 171 0 168 168 0 169 169 0 170 170 0 170 170 0 171 171 0 171 171 0 170 170 0 169 169 0 170 170 0 169 169 0 167 167 0 168 168 0 167 167 0 170 170
0 169 169 0 169 169 0 167 167 0 170 170 0 169 169 0 170 170 0 169 169 0 169 169 0 172 172 0 172 172 0 173 173 0 173 173 0 171 171 0 170 170 0 168 168 0 168 168 0 167 167 0 160 160 0 164 164 0 167 167 0 165 165 0 168 168 0 171 171 0 172 172 0 168 168 0 167 167 0 169 169 0 171 171 0 173 173 0 174 174 0 170 170 0 168 168 0 169 169 0 169 169 0 165 165 0 164 164 0 171 171 0 172 172
0 169 169 0 169 169 0 170 170 0 171 171 0 173 173 0 172 172 0 169 169 0 169 169 0 171 171 0 172 172 0 173 173 0 174 174 0 173 173 0 172 172 0 168 168 0 165 165 0 168 168 0 168 168 0 167 167 0 167 167 0 163 163 0 169 169 0 172 172 0 172 172 0 166 166 0 164 164 0 167 167 0 168 168 0 172 172 0 175 175 0 171 171 0 168 168 0 168 168 0 168 168 0 163 163 0 163 163 0 171 171 0 172 172
0 170 170 0 170 170 0 170 170 0 171 171 0 172 172 0 171 171 0 168 168 0 167 167 0 168 168 0 169 169 0 171 171 0 172 172 0 172 172 0 171 171 0 171 171 0 171 171 0 172 172 0 172 172 0 172 172 0 172 172 0 173 173 0 173 173 0 173 173 0 170 170 0 165 165 0 164 164 0 167 167 0 167 167 0 168 168 0 170 170 0 171 171 0 167 167 0 166 166 0 166 166 0 157 157 0 154 154 0 168 168 0 171 171
0 166 166 0 169 169 0 169 169 0 169 169 0 168 168 0 169 169 0 169 169 0 168 168 0 168 168 0 169 169 0 169 169 0 168 168 0 168 168 0 169 169 0 170 170 0 171 171 0 173 173 0 174 174 0 174 174 0 175 175 0 175 175 0 175 175 0 173 173 0 167 167 0 158 158 0 150 150 0 148 148 0 153 153 0 160 160 0 156 156 0 153 153 0 150 150 0 153 153 0 151 151 0 144 144 0 148 148 0 164 164 0 170 170
0 165 165 0 168 168 0 164 164 0 166 166 0 155 155 0 159 159 0 169 169 0 171 171 0 169 169 0 167 167 0 167 167 0 166 166 0 166 166 0 167 167 0 164 164 0 170 170 0 172 172 0 173 173 0 173 173 0 174 174 0 173 173 0 172 172 0 171 171 0 162 162 0 142 142 0 119 119 0 107 107 0 104 104 0 108 108 0 107 107 0 101 101 0 99 99 0 98 98 0 102 102 0 104 104 0 120 120 0 155 155 0 167 167
0 166 166 0 167 167 0 160 160 0 162 162 0 159 159 0 160 160 0 164 164 0 165 165 0 163 163 0 162 162 0 161 161 0 160 160 0 161 161 0 162 162 0 164 164 0 166 166 0 167 167 0 171 171 0 172 172 0 171 171 0 169 169 0 170 170 0 170 170 0 161 161 0 136 136 0 106 106 0 87 87 0 82 82 0 85 85 0 84 84 0 84 84 0 83 83 0 80 80 0 86 86 0 91 91 0 113 113 0 155 155 0 169 169
0 167 167 0 166 166 0 161 161 0 142 142 0 152 152 0 148 148 0 155 155 0 156 156 0 154 154 0 152 152 0 151 151 0 151 151 0 153 153 0 155 155 0 142 142 0 162 162 0 157 157 0 161 161 0 168 168 0 168 168 0 166 166 0 167 167 0 168 168 0 165 165 0 139 139 0 107 107 0 85 85 0 83 83 0 86 86 0 84 84 0 81 81 0 81 81 0 79 79 0 82 82 0 85 85 0 108 108 0 153 153 0 168 168
0 167 167 0 163 163 0 151 151 0 82 82 0 70 70 0 62 62 0 65 65 0 63 63 0 58 58 0 54 54 0 51 51 0 52 52 0 58 58 0 67 67 0 85 85 0 148 148 0 163 163 0 162 162 0 167 167 0 166 166 0 168 168 0 168 168 0 169 169 0 164 164 0 138 138 0 105 105 0 83 83 0 78 78 0 82 82 0 79 79 0 78 78 0 80 80 0 79 79 0 82 82 0 83 83 0 106 106 0 154 154 0 169 169
0 164 164 0 163 163 0 156 156 0 71 71 0 56 56 0 47 47 0 43 43 0 39 39 0 34 34 0 32 32 0 30 30 0 35 35 0 44 44 0 57 57 0 71 71 0 157 157 0 163 163 0 167 167 0 171 171 0 172 172 0 173 173 0 172 172 0 172 172 0 158 158 0 137 137 0 101 101 0 87 87 0 80 80 0 84 84 0 86 86 0 84 84 0 80 80 0 79 79 0 79 79 0 83 83 0 102 102 0 149 149 0 167 167
0 165 165 0 159 159 0 155 155 0 63 63 0 54 54 0 44 44 0 34 34 0 28 28 0 25 25 0 23 23 0 24 24 0 29 29 0 39 39 0 53 53 0 71 71 0 155 155 0 158 158 0 164 164 0 169 169 0 172 172 0 173 173 0 174 174 0 172 172 0 158 158 0 138 138 0 102 102 0 87 87 0 81 81 0 84 84 0 87 87 0 84 84 0 80 80 0 80 80 0 79 79 0 84 84 0 102 102 0 148 148 0 168 168
0 165 165 0 162 162 0 156 156 0 67 67 0 57 57 0 45 45 0 34 34 0 27 27 0 25 25 0 25 25 0 26 26 0 31 31 0 39 39 0 51 51 0 62 62 0 148 148 0 160 160 0 165 165 0 162 162 0 169 169 0 169 169 0 170 170 0 172 172 0 164 164 0 143 143 0 106 106 0 89 89 0 80 80 0 81 81 0 84 84 0 82 82 0 80 80 0 80 80 0 80 80 0 84 84 0 105 105 0 154 154 0 172 172
0 165 165 0 159 159 0 150 150 0 83 83 0 73 73 0 60 60 0 53 53 0 49 49 0 49 49 0 48 48 0 49 49 0 53 53 0 59 59 0 68 68 0 87 87 0 151 151 0 162 162 0 165 165 0 166 166 0 169 169 0 170 170 0 171 171 0 172 172 0 164 164 0 145 145 0 107 107 0 89 89 0 80 80 0 81 81 0 82 82 0 82 82 0 81 81 0 80 80 0 80 80 0 84 84 0 105 105 0 155 155 0 171 171
0 160 160 0 164 164 0 161 161 0 146 146 0 155 155 0 155 155 0 156 156 0 156 156 0 156 156 0 156 156 0 156 156 0 157 157 0 158 158 0 160 160 0 149 149 0 165 165 0 164 164 0 170 170 0 173 173 0 175 175 0 176 176 0 176 176 0 172 172 0 160 160 0 143 143 0 107 107 0 89 89 0 81 81 0 82 82 0 82 82 0 82 82 0 81 81 0 80 80 0 80 80 0 85 85 0 102 102 0 152 152 0 170 170
0 159 159 0 165 165 0 160 160 0 165 165 0 164 164 0 165 165 0 167 167 0 167 167 0 167 167 0 167 167 0 167 167 0 167 167 0 167 167 0 167 167 0 167 167 0 168 168 0 168 168 0 172 172 0 174 174 0 175 175 0 177 177 0 175 175 0 169 169 0 158 158 0 144 144 0 108 108 0 89 89 0 81 81 0 82 82 0 83 83 0 83 83 0 81 81 0 80 80 0 80 80 0 84 84 0 101 101 0 151 151 0 169 169
0 164 164 0 166 166 0 168 168 0 170 170 0 173 173 0 172 172 0 169 169 0 167 167 0 168 168 0 169 169 0 170 170 0 170 170 0 169 169 0 167 167 0 162 162 0 165 165 0 167 167 0 167 167 0 168 168 0 166 166 0 170 170 0 170 170 0 167 167 0 159 159 0 146 146 0 109 109 0 91 91 0 81 81 0 82 82 0 84 84 0 83 83 0 82 82 0 82 82 0 79 79 0 84 84 0 101 101 0 153 153 0 168 168
0 167 167 0 167 167 0 170 170 0 173 173 0 176 176 0 176 176 0 169 169 0 168 168 0 168 168 0 169 169 0 170 170 0 170 170 0 169 169 0 169 169 0 168 168 0 166 166 0 164 164 0 165 165 0 165 165 0 167 167 0 168 168 0 166 166 0 166 166 0 160 160 0 149 149 0 116 116 0 101 101 0 92 92 0 90 90 0 91 91 0 91 91 0 92 92 0 92 92 0 92 92 0 96 96 0 111 111 0 154 154 0 168 168
0 169 169 0 169 169 0 170 170 0 170 170 0 172 172 0 172 172 0 169 169 0 169 169 0 169 169 0 169 169 0 169 169 0 170 170 0 170 170 0 169 169 0 169 169 0 169 169 0 169 169 0 169 169 0 168 168 0 169 169 0 169 169 0 167 167 0 164 164 0 158 158 0 147 147 0 135 135 0 122 122 0 114 114 0 111 111 0 108 108 0 108 108 0 110 110 0 113 113 0 117 117 0 122 122 0 134 134 0 150 150 0 160 160
0 170 170 0 170 170 0 170 170 0 170 170 0 170 170 0 170 170 0 170 170 0 170 170 0 170 170 0 170 170 0 170 170 0 170 170 0 170 170 0 170 170 0 170 170 0 170 170 0 170 170 0 170 170 0 170 170 0 170 170 0 170 170 0 168 168 0 166 166 0 163 163 0 159 159 0 154 154 0 148 148 0 144 144 0 140 140 0 137 137 0 137 137 0 138 138 0 141 141 0 145 145 0 149 149 0 153 153 0 158 158 0 160 160
0 170 170 0 170 170 0 170 170 0 170 170 0 170 170 0 170 170 0 170 170 0 170 170 0 170 170 0 170 170 0 170 170 0 170 170 0 170 170 0 170 170 0 170 170 0 170 170 0 170 170 0 170 170 0 170 170 0 170 170 0 170 170 0 170 170 0 169 169 0 168 168 0 167 167 0 166 166 0 162 162 0 158 158 0 156 156 0 154 154 0 154 154 0 155 155 0 157 157 0 159 159 0 161 161 0 163 163 0 166 166 0 168 168
0 170 170 0 170 170 0 170 170 0 170 170 0 170 170 0 170 170 0 170 170 0 170 170 0 170 170 0 170 170 0 170 170 0 170 170 0 170 170 0 170 170 0 170 170 0 170 170 0 170 170 0 170 170 0 170 170 0 170 170 0 170 170 0 169 169 0 168 168 0 168 168 0 169 169 0 169 169 0 168 168 0 163 163 0 161 161 0 159 159 0 159 159 0 161 161 0 164 164 0 166 166 0 167 167 0 169 169 0 169 169 0 169 169